<?xml version="1.0" standalone="no"?>
<!DOCTYPE svg PUBLIC "-//W3C//DTD SVG 20010904//EN"
 "http://www.w3.org/TR/2001/REC-SVG-20010904/DTD/svg10.dtd">
<svg version="1.0" xmlns="http://www.w3.org/2000/svg"
 width="585.000000pt" height="585.000000pt" viewBox="0 0 585.000000 585.000000"
 preserveAspectRatio="xMidYMid meet">
<metadata>
Created by potrace 1.11, written by Peter Selinger 2001-2013
</metadata>
<g transform="translate(0.000000,585.000000) scale(0.100000,-0.100000)"
fill="#000000" stroke="none">
<path d="M2855 5250 c-176 -60 -462 -157 -635 -216 -173 -59 -405 -137 -515
-175 -409 -138 -928 -314 -1184 -400 -146 -49 -283 -100 -306 -113 -128 -75
-205 -240 -192 -406 7 -88 33 -151 113 -278 88 -140 89 -141 90 -89 2 81 14
133 49 202 38 77 82 128 152 176 52 36 198 109 216 109 7 -1 37 -33 67 -72 30
-39 61 -77 69 -85 7 -8 12 -15 10 -17 -9 -6 -99 -46 -106 -46 -23 0 -160 -100
-203 -148 -75 -84 -94 -142 -95 -282 0 -114 0 -116 36 -181 20 -36 98 -160
174 -275 75 -115 176 -269 224 -342 47 -73 137 -209 199 -304 61 -94 112 -172
112 -173 0 -2 45 -72 101 -156 56 -85 122 -187 149 -227 l47 -72 7 54 c20 177
188 361 400 441 37 14 75 25 85 25 10 0 38 -25 63 -57 25 -32 56 -69 68 -83
15 -18 18 -26 8 -28 -7 -3 -53 -24 -103 -49 -155 -76 -252 -163 -307 -272 -32
-64 -33 -70 -33 -186 0 -109 3 -125 27 -177 29 -62 357 -575 398 -622 45 -52
119 -104 177 -126 101 -38 149 -31 397 55 120 41 224 75 230 74 6 0 56 -57
111 -126 l100 -126 49 106 49 105 114 0 c62 -1 115 1 118 3 2 3 -10 20 -28 39
-78 85 -119 140 -105 144 25 8 203 69 348 118 80 28 242 83 360 124 118 40
341 116 495 169 154 53 298 103 320 110 22 7 200 68 395 135 195 67 421 145
503 172 131 45 146 52 130 64 -10 8 -47 36 -83 63 -103 77 -191 189 -225 286
-36 104 -16 336 41 470 l16 40 -23 -20 c-76 -67 -141 -159 -171 -244 -57 -162
-3 -365 141 -523 13 -15 22 -30 19 -34 -3 -3 -95 -36 -205 -74 -109 -37 -205
-70 -213 -74 -8 -3 -107 -37 -220 -75 -204 -69 -346 -118 -910 -311 -392 -135
-625 -214 -739 -253 l-94 -31 -19 24 c-32 40 -99 120 -147 175 -24 27 -45 52
-47 54 -4 4 -33 -8 -159 -64 -38 -18 -98 -44 -132 -60 -35 -15 -63 -30 -63
-32 0 -3 30 -42 68 -88 115 -141 113 -139 99 -146 -6 -4 -93 -35 -192 -69
-148 -50 -189 -61 -227 -57 -94 8 -192 97 -232 208 -21 58 -28 161 -14 222 13
59 60 158 102 212 69 91 105 111 377 212 140 52 425 157 634 234 209 77 430
159 490 181 61 22 119 44 130 49 11 5 63 24 115 43 102 36 251 91 340 126 30
12 66 25 80 29 31 10 942 346 990 366 19 7 80 30 135 50 55 20 124 46 153 57
l53 20 -23 22 c-21 20 -255 267 -338 356 -18 19 -96 102 -174 184 -77 81 -152
160 -166 175 -21 22 -166 176 -350 371 -105 111 -213 225 -289 306 -47 50
-150 158 -227 240 -78 82 -156 165 -174 184 -18 19 -92 97 -164 173 -72 77
-149 158 -170 180 -21 23 -102 109 -180 191 -78 81 -161 170 -186 197 -25 27
-47 49 -50 48 -3 0 -149 -49 -325 -109z m-305 -1040 c94 -118 182 -227 194
-242 l22 -27 237 89 c130 50 241 90 246 90 5 0 48 -37 95 -82 l87 -81 -103
-39 c-57 -21 -161 -60 -233 -87 -71 -27 -143 -54 -158 -60 l-29 -11 34 -43
c18 -23 41 -51 50 -62 9 -11 67 -83 128 -160 62 -77 119 -149 128 -160 98
-118 444 -556 441 -559 -10 -7 -365 -136 -374 -136 -5 1 -109 132 -230 291
-121 160 -225 296 -230 302 -6 7 -33 41 -60 77 -27 36 -52 67 -55 70 -3 3 -45
58 -93 123 -49 64 -95 117 -102 117 -10 0 -284 -100 -375 -137 -8 -3 -42 -16
-75 -27 l-59 -22 -41 51 c-56 70 -95 123 -95 129 0 3 15 9 33 15 52 15 461
171 469 179 4 4 -31 57 -78 117 -47 61 -124 162 -172 225 -48 63 -95 124 -104
134 -10 11 -18 23 -18 26 0 6 54 26 260 96 36 13 70 22 77 21 6 -1 89 -99 183
-217z"/>
</g>
</svg>
